<?xml version="1.0" encoding="utf-8"?>
<!-- Generator: Adobe Illustrator 26.2.1, SVG Export Plug-In . SVG Version: 6.00 Build 0)  -->
<svg version="1.1" id="Layer_1" xmlns="http://www.w3.org/2000/svg" xmlns:xlink="http://www.w3.org/1999/xlink" x="0px" y="0px"
	 viewBox="0 0 512 512" style="enable-background:new 0 0 512 512;" xml:space="preserve">
<style type="text/css">
	.st0{fill:#F34336;}
	.st1{opacity:0.15;enable-background:new    ;}
	.st2{fill:#455A64;}
	.st3{fill:#E1ECF1;}
	.st4{fill:#D02E2B;}
</style>
<g id="shadows">
	<path class="st0" d="M449.9,310.4c-19.3,17.8-97.3,94.2-153.6,110.5c-34,10.8-48.2,10.7-52.8,10.1c-0.6-0.1-1.2-0.2-1.8-0.4
		l-0.1-0.1L78.5,263.3l-0.2-0.2c0,0-9.6-75.4,33.3-146.4s88.9-51.4,96.8-24.4c2.4,8.4,4,17.1,4.7,25.9c0,0.5,0.1,1,0.1,1.5
		c0.1,1.4,0.2,2.8,0.3,4.1c0.7-1.2,1.4-2.3,2.1-3.6c0.3-0.5,0.5-0.9,0.8-1.4c3.9-7.3,6.9-14.9,9-22.9c4.7-25.8-11.4-48,20.8-75.7
		s111.2,4.4,140.6,30.1c29.4,25.7,93.3,81.6,102.7,143.7C498.8,255.9,469.2,292.6,449.9,310.4z"/>
	<path class="st1" d="M449.9,310.4c-19.3,17.8-97.3,94.2-153.6,110.5c-34,10.8-48.2,10.7-52.8,10.1c-0.6-0.1-1.2-0.2-1.8-0.4
		l-0.1-0.1l-6.4-6.6c5.3-1.4,11.4-3.1,18.4-5.3c56.3-16.3,134.4-92.7,153.6-110.5c19.3-17.8,48.9-54.5,39.5-116.5
		c-9.4-62-73.3-118-102.7-143.6c-16.2-14.1-47.3-30.2-77.4-37.1c37.7-7.4,95.8,18.2,120.1,39.4c29.4,25.7,93.3,81.6,102.7,143.7
		S469.2,292.6,449.9,310.4z"/>
	<path class="st2" d="M78.5,263.3l163.1,167.2L181.1,486c-17.3,15.9-44.1,15.1-60.5-1.8L22.1,382.5C5.9,365.7,5.8,339.1,22,322.3
		L78.5,263.3z"/>
	<path class="st1" d="M241.6,430.5L181.1,486c-11.1,10.2-26.7,13.9-41.2,9.8c6.5-1.8,12.5-5.2,17.5-9.8l50-45.9
		c5.6-5.1,6-13.8,0.9-19.4c-0.1-0.1-0.2-0.2-0.3-0.3L66.8,275.5l11.7-12.2L241.6,430.5z"/>
	<path class="st3" d="M74.3,321.4l-19.2,18.3c-6.4,6.2-6.7,16.4-0.5,22.8c0,0,0.1,0.1,0.1,0.1l85.5,87.6c6.1,6.2,16,6.5,22.4,0.7
		l20-18.1c6.6-6,7.1-16.2,1.1-22.8c-0.1-0.2-0.3-0.3-0.4-0.5L97,321.8C90.8,315.5,80.7,315.3,74.3,321.4z"/>
	<path class="st4" d="M218.2,126.7c-4.4,7.2-9.6,13.8-15.5,19.7c-27.3,27.3-61.4,32.4-62.8,32.6c-0.3,0-0.5,0.1-0.8,0.1
		c-3.1,0-5.7-2.6-5.6-5.7c0-2.8,2.1-5.1,4.8-5.6c0.3-0.1,32-5,56.7-29.7c5.2-5.2,9.8-11,13.6-17.3c0.9-1.6,2.6-2.6,4.5-2.7
		c0,0.5,0.1,1,0.1,1.5c0.1,1.4,0.2,2.8,0.3,4.1c0.7-1.2,1.4-2.3,2.1-3.6c0.3-0.5,0.5-0.9,0.8-1.4l0.2,0.2
		C219,120.6,219.8,124,218.2,126.7z"/>
</g>
</svg>
