<?xml version="1.0" encoding="utf-8"?>
<!-- Generator: Adobe Illustrator 26.2.1, SVG Export Plug-In . SVG Version: 6.00 Build 0)  -->
<svg version="1.1" id="Layer_1" xmlns="http://www.w3.org/2000/svg" xmlns:xlink="http://www.w3.org/1999/xlink" x="0px" y="0px"
	 viewBox="0 0 512 512" style="enable-background:new 0 0 512 512;" xml:space="preserve">
<style type="text/css">
	.st0{fill:#FFEACC;}
	.st1{fill:#FFDBB2;}
	.st2{fill:#F34336;}
	.st3{opacity:0.15;enable-background:new    ;}
	.st4{fill:#454546;}
	.st5{fill:#696A6D;}
	.st6{fill:#E1ECF1;}
</style>
<rect x="107.9" y="240.9" transform="matrix(0.7071 -0.7071 0.7071 0.7071 -106.039 255.9995)" class="st0" width="296.2" height="30.1"/>
<rect x="113.3" y="254" transform="matrix(0.7071 -0.7071 0.7071 0.7071 -108.2751 261.3943)" class="st1" width="296.2" height="14.9"/>
<path class="st0" d="M330.1,245.5c-5.7,5.7-15.3,5.7-21,0l-21.3-21.3l-21.3-21.3c-5.7-5.7-5.7-15.3,0-21c6-6,15.6-6,21.3,0
	l21.3,21.3l21,21C336.1,229.9,336.1,239.5,330.1,245.5z"/>
<path class="st1" d="M330.1,245.5c-5.7,5.7-15.3,5.7-21,0l-21.3-21.3l21.3-21l21,21C336.1,229.9,336.1,239.5,330.1,245.5z"/>
<path class="st0" d="M287.8,287.8c-5.7,6-15.3,6-21.3,0l-21-21l-21.3-21.3c-6-6-6-15.6,0-21.3c5.7-6,15.3-6,21.3,0l42.3,42.3
	C293.8,272.5,293.8,282.1,287.8,287.8z"/>
<path class="st1" d="M287.8,287.8c-5.7,6-15.3,6-21.3,0l-21-21l21.3-21.3l21,21C293.8,272.5,293.8,282.1,287.8,287.8z"/>
<path class="st0" d="M245.5,330.1c-6,6-15.6,6-21.3,0l-42.3-42.3c-6-5.7-6-15.3,0-21.3c5.7-5.7,15.3-5.7,21,0l21.3,21.3l21.3,21.3
	C251.2,314.8,251.2,324.4,245.5,330.1z"/>
<path class="st1" d="M245.5,330.1c-6,6-15.6,6-21.3,0l-21-21l21-21.3l21.3,21.3C251.2,314.8,251.2,324.4,245.5,330.1z"/>
<g id="color">
	<path class="st2" d="M5.5,290.3c12.2,74.6,74.6,152.9,74.6,152.9s202.3,31.7,418.6-0.9c0,0,20.3-52.7,3.2-132.7
		c-16.7,5.7-60.6,19.8-103.9,26.4c-41.7,5.9-76,7.5-104.5,6.3c-70.4-3-105.6-23.1-129.5-37c-33.6-19.6-57.8-59.7-42.9-84.8
		c14.8-24.9,23.1-33.4,107.3-32.7h2.7c75,0.8,161.1-40.2,183-51.3c-2.5-3.1-5.1-6.2-7.7-9.3c-86.7-93.2-205.1-91.3-280.6-55.9
		S-10.3,185.9,5.5,290.3z"/>
	<path class="st3" d="M5.5,290.3c12.2,74.6,74.6,152.9,74.6,152.9s202.3,31.7,418.6-0.9c0,0,4.8-12.5,7.8-34.5
		C361,428.1,223.6,420,152,413c-34.2-3.3-64.9-22.7-82.6-52.1C51.8,331.6,32.3,292.3,26,253.9c-6.3-41.5-0.5-79,13.4-111.4
		C11.6,181.9-3.3,232.2,5.5,290.3z"/>
	<path class="st4" d="M228.4,187.7l65.1,154.5c28.5,1.2,62.8-0.4,104.5-6.3c43.3-6.6,87.2-20.7,103.9-26.4c4.5-1.5,7.1-2.5,7.1-2.5
		s-27-100.7-89.5-173.4c0,0-1.9,1-5.3,2.7c-22,11.1-108.1,52.1-183,51.3L228.4,187.7z"/>
	<path class="st5" d="M164,305.2c23.9,13.9,59.1,34,129.5,37l-65.1-154.5c-84.2-0.7-92.6,7.8-107.3,32.7
		C106.2,245.5,130.5,285.6,164,305.2z"/>
	<path class="st3" d="M164,305.2c23.9,13.9,59.1,34,129.5,37c28.5,1.2,62.8-0.4,104.5-6.3c43.3-6.6,87.2-20.7,103.9-26.4
		c4.5-1.5,7.1-2.5,7.1-2.5s-1.9-7.2-5.9-19c-20.4,6.6-58.2,18-95.7,23.7c-41.7,5.9-76,7.5-104.5,6.3c-70.4-3-105.7-23.1-129.5-37
		c-26.9-15.7-47.8-44.6-47.4-68.4c-1.6,2.4-3.2,5-4.9,7.8C106.2,245.5,130.5,285.6,164,305.2z"/>
	<circle class="st6" cx="170.1" cy="246.9" r="21"/>
</g>
</svg>
