<?xml version="1.0" ?><!DOCTYPE svg  PUBLIC '-//W3C//DTD SVG 1.0//EN'  'http://www.w3.org/TR/2001/REC-SVG-20010904/DTD/svg10.dtd'><svg enable-background="new 0 0 31.144 32.014" height="32.014" overflow="visible" viewBox="0 0 31.144 32.014" width="31.144" xml:space="preserve" xmlns="http://www.w3.org/2000/svg" xmlns:xlink="http://www.w3.org/1999/xlink"><g><g id="Paypal_1_"><g id="Paypal"><path d="M24.976,3.083c-0.684-1.101-1.609-1.89-2.779-2.367        C21.026,0.239,19.437,0,17.426,0h-5.111l-0.002,0.014H6l-6,28h6l2.357-11h9.262c0.537,0,2.245-0.485,3.019-0.837        c0.909-0.413,1.759-1.021,2.548-1.822s1.456-1.871,1.999-3.207S26,8.437,26,7.024C26,5.497,25.658,4.184,24.976,3.083z" fill="#38447E" id="Outer_P"/><path d="M22.932,4.014H11.143l-2.786,13h9.262c0.537,0,2.245-0.485,3.019-0.837        c0.909-0.413,1.759-1.021,2.548-1.822s1.456-1.871,1.999-3.207S26,8.437,26,7.024c0-1.032-0.17-1.958-0.481-2.795        C24.76,4.099,23.892,4.03,22.932,4.014z" fill="#212C63" id="Shadow"/><path d="M30.118,7.083c-0.684-1.101-1.609-1.89-2.779-2.367        c-0.518-0.21-1.13-0.367-1.812-0.485l0.135,0.428c0,0-0.005,0.001-0.006,0.002C25.876,5.383,26,6.165,26,7.024        c0,1.412-0.272,2.787-0.815,4.123s-1.21,2.405-1.999,3.207s-1.639,1.409-2.548,1.822c-0.773,0.352-2.481,0.837-3.019,0.837        H8.357l-3.214,15h6l2.357-11h9.263c0.537,0,2.244-0.484,3.018-0.837c0.91-0.413,1.76-1.021,2.549-1.822        s1.455-1.871,1.998-3.207s0.816-2.711,0.816-4.123C31.144,9.497,30.802,8.184,30.118,7.083z" fill="#5FCCFF" id="Inner_P"/></g></g></g></svg>