<svg height="512" viewBox="0 0 152 152" width="512" xmlns="http://www.w3.org/2000/svg"><g id="Layer_2" data-name="Layer 2"><g id="grin"><path id="icon" d="m76 0a76 76 0 1 0 76 76 76 76 0 0 0 -76-76zm27.82 48.69a9.75 9.75 0 1 1 -9.74 9.74 9.74 9.74 0 0 1 9.74-9.74zm-55.64 0a9.75 9.75 0 1 1 -9.74 9.74 9.75 9.75 0 0 1 9.74-9.74zm70.62 46.69c-3.19 18.21-21.14 30.84-42.8 30.84s-39.6-12.63-42.79-30.84a3.68 3.68 0 0 1 -.06-.56c0-2.63 3.2-4.33 6-3.37 10.8 3.73 23.4 5.63 36.86 5.63s26.06-1.9 36.86-5.63c2.79-1 6 .73 6 3.37a3.64 3.64 0 0 1 -.07.56z"/></g></g></svg>