<svg width="27" height="27" viewBox="0 0 27 27" fill="none" xmlns="http://www.w3.org/2000/svg">
<path d="M5.31 3C5.4 4.335 5.625 5.64 5.985 6.885L4.185 8.685C3.57 6.885 3.18 4.98 3.045 3H5.31ZM20.1 21.03C21.375 21.39 22.68 21.615 24 21.705V23.94C22.02 23.805 20.115 23.415 18.3 22.815L20.1 21.03ZM6.75 0H1.5C0.675 0 0 0.675 0 1.5C0 15.585 11.415 27 25.5 27C26.325 27 27 26.325 27 25.5V20.265C27 19.44 26.325 18.765 25.5 18.765C23.64 18.765 21.825 18.465 20.145 17.91C19.995 17.85 19.83 17.835 19.68 17.835C19.29 17.835 18.915 17.985 18.615 18.27L15.315 21.57C11.07 19.395 7.59 15.93 5.43 11.685L8.73 8.385C9.15 7.965 9.27 7.38 9.105 6.855C8.55 5.175 8.25 3.375 8.25 1.5C8.25 0.675 7.575 0 6.75 0Z" fill="white" fill-opacity="0.7"/>
</svg>
