<?xml version="1.0" encoding="utf-8"?>
<!-- Generator: Adobe Illustrator 27.0.0, SVG Export Plug-In . SVG Version: 6.00 Build 0)  -->
<svg version="1.1" id="Capa_1" xmlns="http://www.w3.org/2000/svg" xmlns:xlink="http://www.w3.org/1999/xlink" x="0px" y="0px"
	 viewBox="0 0 512 512" style="enable-background:new 0 0 512 512;" xml:space="preserve">
<style type="text/css">
	.st0{fill:#FFFFFF;}
	.st1{fill:#5A5B5D;}
</style>
<g>
	<circle class="st0" cx="256" cy="256" r="236.2"/>
	<path class="st0" d="M256,512C114.9,512,0,397.2,0,256C0,114.9,114.9,0,256,0c141.2,0,256,114.9,256,256
		C512,397.2,397.2,512,256,512z M256,39.7c-119.3,0-216.3,97-216.3,216.3s97,216.3,216.3,216.3S472.3,375.3,472.3,256
		C472.3,136.7,375.3,39.7,256,39.7z"/>
</g>
<path class="st1" d="M369.2,311.1c-7.7,7.7-20.2,7.7-28,0l-85.1-85.1l-85.1,85.1c-8.3,7.1-20.8,6.1-28-2.2c-6.4-7.4-6.4-18.4,0-25.8
	l99.1-99.1c7.7-7.7,20.2-7.7,28,0l99.1,99.1C377.1,291,377,303.5,369.2,311.1z"/>
</svg>
