<?xml version="1.0" encoding="utf-8"?>
<!-- Generator: Adobe Illustrator 27.0.0, SVG Export Plug-In . SVG Version: 6.00 Build 0)  -->
<svg version="1.1" xmlns="http://www.w3.org/2000/svg" xmlns:xlink="http://www.w3.org/1999/xlink" x="0px" y="0px"
	 viewBox="0 0 512 512" style="enable-background:new 0 0 512 512;" xml:space="preserve">
<style type="text/css">
	.st0{fill-rule:evenodd;clip-rule:evenodd;fill:#FEF9FC;}
	.st1{fill-rule:evenodd;clip-rule:evenodd;fill:#2DC1F2;}
</style>
<g id="Layer_2">
	<ellipse class="st0" cx="257" cy="266.5" rx="204" ry="189.5"/>
</g>
<g id="Layer_1">
	<path class="st1" d="M256,1c141.4,0,256,114.7,256,256S397.4,513,256,513S0,398.4,0,257S114.6,1,256,1L256,1z M187.1,267.8
		c0,4.6,3.7,8.3,8.2,8.3c4.6,0,8.3-3.7,8.3-8.2c0-4.6-3.7-8.3-8.2-8.3c0,0,0,0,0,0h0C190.9,259.5,187.1,263.2,187.1,267.8
		L187.1,267.8z M142.7,267.8c0,4.6,3.7,8.3,8.2,8.3c4.6,0,8.3-3.7,8.3-8.2c0-4.6-3.7-8.3-8.2-8.3c0,0,0,0,0,0h0
		C146.4,259.5,142.7,263.2,142.7,267.8z M231.6,267.8c0,4.6,3.7,8.3,8.2,8.3c4.6,0,8.3-3.7,8.3-8.2s-3.7-8.3-8.2-8.3c0,0,0,0,0,0h0
		C235.3,259.5,231.6,263.2,231.6,267.8z M186.2,364.3L186.2,364.3L186.2,364.3c3.1,0.3,6.2,0.4,9.2,0.4c53.5,0,96.9-43.4,96.9-96.9
		s-43.4-96.9-96.9-96.9s-96.9,43.4-96.9,96.9c0,24.3,9.1,47.7,25.6,65.6c1.4,1.5,2.2,3.5,2.2,5.6v58.1l55.1-31.8
		C182.8,364.5,184.5,364.1,186.2,364.3L186.2,364.3z M316.6,116.8c-31.8,0.1-61.5,15.6-79.7,41.7l-2,2.8l3.2,1.3
		c56.4,22.9,84.7,86.2,64.1,143.5l-1.2,3.2l3.4,0.4c4,0.5,8.1,0.8,12.1,0.8c3.1,0,6.2-0.1,9.2-0.4c1.7-0.2,3.4,0.2,4.9,1.1l55,31.8
		V285c0-2.1,0.8-4.1,2.2-5.6c36.2-39.4,33.7-100.7-5.7-136.9C364.3,125.9,340.9,116.8,316.6,116.8L316.6,116.8z"/>
</g>
</svg>
