<?xml version="1.0" encoding="utf-8"?>
<!-- Generator: Adobe Illustrator 26.2.1, SVG Export Plug-In . SVG Version: 6.00 Build 0)  -->
<svg version="1.1" id="Layer_1" xmlns="http://www.w3.org/2000/svg" xmlns:xlink="http://www.w3.org/1999/xlink" x="0px" y="0px"
	 viewBox="0 0 592.5 500" style="enable-background:new 0 0 592.5 500;" xml:space="preserve">
<style type="text/css">
	.st0{fill:#E02F22;}
	.st1{fill:#F03A30;}
	.st2{fill:#696A6D;}
	.st3{fill:#454546;}
	.st4{fill:#AAADAF;}
	.st5{fill:#525252;}
	.st6{fill:#655E67;}
	.st7{fill:#544F56;}
	.st8{fill:#F23A30;}
	.st9{fill:#B92A22;}
</style>
<g>
	<path class="st0" d="M495.6,136.8c-45-79-128.9-132.6-225.5-134.4c-1.7-0.1-43.3,27.9-43.3,27.9l-33.1-18.3
		C81.5,43.5-0.3,146.6,0,269.7c0.2,86.7,41.7,163.7,105.7,212.2c11.8,9,26.3,13.9,41.1,13.9h47l38.2-11.8l38.2,11.8h240.6
		c20.5,0,39.2-11.6,48.5-30l27.4-54.4c7.1-14.1,7.8-30.7,1.9-45.4L524,276.5L495.6,136.8z"/>
	<path class="st1" d="M588.4,366.1l-118.4-71.7l25.6-157.5c-45-79-128.9-132.6-225.5-134.4c-1.7,0-5.2,0.6-5.2,0.6s-11.7-0.3-17.5,0
		c91.1,6.1,169.5,58.4,212.3,133.8l92.9,229.2c5.9,14.7,5.3,31.1-1.9,45.4l-27.4,54.4c-9.3,18.4-28,30-48.5,30h35.8
		c20.5,0,39.2-11.6,48.5-30l27.4-54.4C593.8,397.3,594.5,380.8,588.4,366.1L588.4,366.1z"/>
	<path class="st2" d="M193.6,12.1v483.6h76.5V2.5c-1.7,0-3.5,0-5.3,0C240.1,2.4,216.3,5.8,193.6,12.1z"/>
	<path class="st3" d="M592.4,389.1c0.3-7.8-0.9-15.6-3.9-23l-91.9-226.8l-236.9,90.3l-27.9,49.8l114.9,60.3
		c62,32.6,131.1,49.6,201.1,49.6h44.6V389.1z"/>
	<path class="st2" d="M231.9,375.7c-13.4,0-26.3,15.5-38.2,11.2c-44.1-15.9-75.7-58.1-75.7-107.7s31.6-91.9,75.7-107.7
		c11.9-4.3,24.9,11.2,38.2,11.2s26-15.6,37.8-11.5c19.8,6.9,37,19.3,50.1,35.2c16.3,19.8,8.2,45.1,8.2,72.7c0,19.1,13.2,37.1,4.9,53
		c-13.2,25.2-35.6,45-62.7,54.7C258.2,391.3,245.3,375.7,231.9,375.7L231.9,375.7z"/>
	<path class="st3" d="M231.9,279.2l100.9,53c8.3-15.9,13-33.9,13-53c0-27.5-9.7-52.9-26-72.7l-60.1,22.9L231.9,279.2z"/>
	<path class="st4" d="M193.6,171.4v215.5c11.9,4.3,24.9,6.6,38.2,6.6s26.3-2.3,38.2-6.6V171.4c-11.9-4.3-24.9-6.6-38.2-6.6
		S205.6,167.2,193.6,171.4L193.6,171.4z"/>
	<path class="st5" d="M588.4,366.1l-91.9-226.8l-31,11.8l87.1,215c3,7.4,4.3,15.3,3.9,23h35.8C592.7,381.4,591.4,373.5,588.4,366.1
		L588.4,366.1z"/>
	<ellipse class="st6" cx="231.9" cy="279.2" rx="78.2" ry="78.6"/>
	<path class="st7" d="M231.9,200.6c-6.1,0-12.2,0.7-17.9,2.1c34.6,8.1,60.3,39.3,60.3,76.5s-25.8,68.4-60.3,76.5
		c5.8,1.4,11.7,2.1,17.9,2.1c43.2,0,78.2-35.2,78.2-78.6S275.1,200.6,231.9,200.6L231.9,200.6z"/>
	<ellipse class="st8" cx="231.9" cy="279.2" rx="37.4" ry="37.6"/>
	<path class="st9" d="M231.9,241.7c-6.5,0-12.6,1.6-17.9,4.6c11.6,6.4,19.6,18.7,19.6,33c0,14.2-7.9,26.6-19.6,33
		c5.3,2.9,11.5,4.6,17.9,4.6c20.6,0,37.4-16.9,37.4-37.6C269.3,258.5,252.5,241.7,231.9,241.7L231.9,241.7z"/>
</g>
</svg>
