<svg width="24" height="20" viewBox="0 0 24 20" fill="none" xmlns="http://www.w3.org/2000/svg">
<path d="M20.3483 1.68914C20.3417 1.675 20.3306 1.66392 20.3171 1.65789C18.7611 0.877022 17.119 0.320203 15.432 0.00136579C15.4167 -0.00175077 15.4008 0.000497555 15.3867 0.00779102C15.3726 0.0150845 15.361 0.0270518 15.3535 0.0419909C15.1299 0.485871 14.9269 0.941809 14.7453 1.40807C12.9268 1.10614 11.0771 1.10614 9.25854 1.40807C9.07575 0.940625 8.86952 0.484574 8.64078 0.0419909C8.63293 0.0273764 8.62125 0.0156848 8.60724 0.00843867C8.59323 0.00119258 8.57755 -0.00127209 8.56225 0.00136579C6.87505 0.319533 5.23286 0.876394 3.67701 1.65793C3.66369 1.66411 3.65245 1.67465 3.64484 1.68811C0.533445 6.77018 -0.318885 11.7273 0.0992394 16.623C0.100416 16.635 0.103786 16.6466 0.10915 16.6572C0.114514 16.6677 0.121763 16.677 0.130464 16.6844C1.9422 18.1516 3.96865 19.2716 6.12334 19.9964C6.13852 20.0014 6.15472 20.0012 6.16977 19.9958C6.18483 19.9904 6.19801 19.9801 6.20755 19.9662C6.67033 19.2775 7.08038 18.5482 7.43355 17.7858C7.4384 17.7753 7.44117 17.7639 7.44168 17.7521C7.44219 17.7404 7.44042 17.7287 7.43649 17.7178C7.43256 17.7069 7.42656 17.697 7.41888 17.6888C7.41121 17.6806 7.40203 17.6743 7.39196 17.6703C6.74533 17.3996 6.11931 17.0734 5.51979 16.6947C5.5089 16.6877 5.49975 16.6778 5.49316 16.6661C5.48656 16.6543 5.48272 16.6409 5.48198 16.6271C5.48123 16.6133 5.4836 16.5995 5.48888 16.587C5.49416 16.5744 5.50218 16.5635 5.51224 16.5551C5.63803 16.452 5.76391 16.3448 5.88404 16.2365C5.89471 16.2269 5.90762 16.2207 5.92132 16.2187C5.93502 16.2167 5.94897 16.2189 5.96159 16.2251C9.88931 18.1857 14.1416 18.1857 18.0229 16.2251C18.0355 16.2185 18.0496 16.216 18.0635 16.2178C18.0774 16.2197 18.0905 16.2258 18.1014 16.2355C18.2215 16.3438 18.3474 16.452 18.4741 16.5551C18.4842 16.5634 18.4923 16.5743 18.4977 16.5868C18.503 16.5993 18.5055 16.613 18.5049 16.6268C18.5042 16.6406 18.5005 16.654 18.4939 16.6659C18.4874 16.6777 18.4783 16.6876 18.4675 16.6947C17.8693 17.0766 17.2428 17.4026 16.5944 17.6692C16.5844 17.6734 16.5752 17.6799 16.5676 17.6882C16.56 17.6965 16.554 17.7065 16.5502 17.7175C16.5463 17.7285 16.5447 17.7403 16.5452 17.7521C16.5458 17.7638 16.5487 17.7753 16.5536 17.7858C16.9127 18.544 17.3222 19.2724 17.7787 19.965C17.788 19.9792 17.8011 19.9899 17.8162 19.9955C17.8313 20.0011 17.8476 20.0014 17.8629 19.9963C20.0214 19.2739 22.0514 18.1538 23.8654 16.6844C23.8743 16.6774 23.8816 16.6683 23.887 16.6579C23.8924 16.6475 23.8957 16.636 23.8967 16.624C24.3972 10.9641 23.0586 6.04759 20.3483 1.68914ZM8.02012 13.642C6.83759 13.642 5.86322 12.4551 5.86322 10.9974C5.86322 9.53974 6.81869 8.35273 8.02012 8.35273C9.23095 8.35273 10.1959 9.55005 10.177 10.9973C10.177 12.4551 9.22148 13.642 8.02012 13.642ZM15.9948 13.642C14.8124 13.642 13.838 12.4551 13.838 10.9974C13.838 9.53974 14.7935 8.35273 15.9948 8.35273C17.2057 8.35273 18.1707 9.55005 18.1518 10.9973C18.1518 12.4551 17.2057 13.642 15.9948 13.642Z" fill="white"/>
</svg>
