<svg width="24" height="25" viewBox="0 0 24 25" fill="none" xmlns="http://www.w3.org/2000/svg">
<path d="M12 0C18.6274 0 24 5.45522 24 12.1846C24 18.914 18.6274 24.3692 12 24.3692C5.37257 24.3692 0 18.914 0 12.1846C0 5.45522 5.37257 0 12 0ZM6.43781 8.28652C6.61839 10.2132 7.39979 14.8887 7.79749 17.0467C7.96568 17.9597 8.29694 18.2659 8.61755 18.2958C9.31432 18.361 9.84358 17.8283 10.5185 17.379C11.5747 16.676 12.1713 16.2384 13.1966 15.5524C14.3813 14.7597 13.6133 14.3241 12.9381 13.6117C12.7614 13.4254 9.69097 10.5897 9.63155 10.3324C9.62415 10.3002 9.61703 10.1801 9.68739 10.117C9.75774 10.0539 9.8611 10.0753 9.93586 10.0924C10.0418 10.1169 11.729 11.2492 14.9975 13.4895C15.4764 13.8234 15.9102 13.9861 16.2989 13.9776C16.7273 13.9682 17.5515 13.7316 18.1642 13.5293C18.9157 13.2813 19.513 13.1502 19.461 12.7289C19.4339 12.5095 19.1363 12.2851 18.5683 12.0558C15.07 10.5083 12.7373 9.48797 11.5701 8.99495C8.23761 7.58748 7.54515 7.343 7.09379 7.33484C6.9945 7.33317 6.77255 7.35813 6.62879 7.47659C6.53316 7.56097 6.47221 7.67873 6.45798 7.80656C6.43362 7.96528 6.42686 8.12627 6.43781 8.28652Z" fill="white"/>
</svg>
