<svg width="24" height="20" viewBox="0 0 24 20" fill="none" xmlns="http://www.w3.org/2000/svg">
<path d="M21.5331 4.98436C21.5483 5.2031 21.5483 5.42188 21.5483 5.64062C21.5483 12.3125 16.5991 20 7.55333 20C4.7665 20 2.17768 19.1718 0 17.7344C0.395955 17.7812 0.776628 17.7969 1.18782 17.7969C3.48728 17.7969 5.60407 17 7.29444 15.6406C5.13199 15.5938 3.31979 14.1406 2.69542 12.1406C3.00001 12.1875 3.30456 12.2187 3.62439 12.2187C4.066 12.2187 4.50766 12.1562 4.9188 12.0469C2.66499 11.5781 0.974582 9.54687 0.974582 7.09374V7.03126C1.62938 7.40627 2.39087 7.64064 3.19792 7.67185C1.87304 6.76558 1.00505 5.21873 1.00505 3.46871C1.00505 2.53123 1.24866 1.67186 1.67508 0.921852C4.09642 3.98435 7.73605 5.98432 11.8172 6.2031C11.7411 5.8281 11.6954 5.43752 11.6954 5.04688C11.6954 2.2656 13.8883 0 16.6142 0C18.0304 0 19.3096 0.609373 20.2081 1.59375C21.3198 1.37501 22.3858 0.953114 23.33 0.375003C22.9644 1.5469 22.1878 2.53128 21.1675 3.15624C22.1574 3.04691 23.1168 2.7656 24 2.37502C23.3301 3.37498 22.4924 4.26557 21.5331 4.98436Z" fill="white"/>
</svg>
